<mxfile host="app.diagrams.net" modified="2023-12-12T13:46:00.630Z" agent="Mozilla/5.0 (Macintosh; Intel Mac OS X 10_15_7) AppleWebKit/537.36 (KHTML, like Gecko) Chrome/120.0.0.0 Safari/537.36" etag="RfJkFrcvCgtyA1VRFX_s" version="21.6.5" type="github">
  <diagram id="C5RBs43oDa-KdzZeNtuy" name="Page-1">
    <mxGraphModel dx="1383" dy="788" grid="1" gridSize="10" guides="1" tooltips="1" connect="1" arrows="1" fold="1" page="1" pageScale="1" pageWidth="827" pageHeight="1169" math="0" shadow="0">
      <root>
        <mxCell id="WIyWlLk6GJQsqaUBKTNV-0" />
        <mxCell id="WIyWlLk6GJQsqaUBKTNV-1" parent="WIyWlLk6GJQsqaUBKTNV-0" />
        <mxCell id="mqbAT9hnjUrQ2IYAz1mF-63" value="" style="rounded=0;whiteSpace=wrap;html=1;fillColor=none;perimeterSpacing=1;dashed=1;opacity=20;" vertex="1" parent="WIyWlLk6GJQsqaUBKTNV-1">
          <mxGeometry x="240" y="350" width="300" height="470" as="geometry" />
        </mxCell>
        <mxCell id="mqbAT9hnjUrQ2IYAz1mF-9" style="edgeStyle=orthogonalEdgeStyle;rounded=0;orthogonalLoop=1;jettySize=auto;html=1;entryX=0.5;entryY=0;entryDx=0;entryDy=0;strokeColor=default;endArrow=none;endFill=0;" edge="1" parent="WIyWlLk6GJQsqaUBKTNV-1">
          <mxGeometry relative="1" as="geometry">
            <mxPoint x="389.9999999999998" y="220" as="sourcePoint" />
            <mxPoint x="390.0000000000002" y="260" as="targetPoint" />
          </mxGeometry>
        </mxCell>
        <mxCell id="mqbAT9hnjUrQ2IYAz1mF-7" value="" style="endArrow=none;html=1;rounded=0;entryX=0.5;entryY=1;entryDx=0;entryDy=0;entryPerimeter=0;exitX=0.5;exitY=0;exitDx=0;exitDy=0;" edge="1" parent="WIyWlLk6GJQsqaUBKTNV-1">
          <mxGeometry width="50" height="50" relative="1" as="geometry">
            <mxPoint x="390.0000000000002" y="160" as="sourcePoint" />
            <mxPoint x="390.0000000000002" y="120" as="targetPoint" />
          </mxGeometry>
        </mxCell>
        <mxCell id="mqbAT9hnjUrQ2IYAz1mF-23" value="" style="edgeStyle=orthogonalEdgeStyle;rounded=0;orthogonalLoop=1;jettySize=auto;html=1;endArrow=none;endFill=0;" edge="1" parent="WIyWlLk6GJQsqaUBKTNV-1" source="mqbAT9hnjUrQ2IYAz1mF-15" target="mqbAT9hnjUrQ2IYAz1mF-22">
          <mxGeometry relative="1" as="geometry" />
        </mxCell>
        <mxCell id="mqbAT9hnjUrQ2IYAz1mF-15" value="let i = 0; i &amp;lt; n; i++" style="shape=hexagon;perimeter=hexagonPerimeter2;whiteSpace=wrap;html=1;fixedSize=1;" vertex="1" parent="WIyWlLk6GJQsqaUBKTNV-1">
          <mxGeometry x="330" y="360" width="120" height="30" as="geometry" />
        </mxCell>
        <mxCell id="mqbAT9hnjUrQ2IYAz1mF-18" value="" style="edgeStyle=orthogonalEdgeStyle;rounded=0;orthogonalLoop=1;jettySize=auto;html=1;endArrow=none;endFill=0;" edge="1" parent="WIyWlLk6GJQsqaUBKTNV-1" source="mqbAT9hnjUrQ2IYAz1mF-17">
          <mxGeometry relative="1" as="geometry">
            <mxPoint x="390.0000000000002" y="160" as="targetPoint" />
          </mxGeometry>
        </mxCell>
        <mxCell id="mqbAT9hnjUrQ2IYAz1mF-17" value="Старт" style="ellipse;whiteSpace=wrap;html=1;" vertex="1" parent="WIyWlLk6GJQsqaUBKTNV-1">
          <mxGeometry x="330" y="100" width="120" height="40" as="geometry" />
        </mxCell>
        <mxCell id="mqbAT9hnjUrQ2IYAz1mF-19" value="Введите размерность n" style="shape=parallelogram;perimeter=parallelogramPerimeter;whiteSpace=wrap;html=1;fixedSize=1;" vertex="1" parent="WIyWlLk6GJQsqaUBKTNV-1">
          <mxGeometry x="330" y="160" width="120" height="60" as="geometry" />
        </mxCell>
        <mxCell id="mqbAT9hnjUrQ2IYAz1mF-21" value="" style="edgeStyle=orthogonalEdgeStyle;rounded=0;orthogonalLoop=1;jettySize=auto;html=1;endArrow=none;endFill=0;" edge="1" parent="WIyWlLk6GJQsqaUBKTNV-1" source="mqbAT9hnjUrQ2IYAz1mF-20" target="mqbAT9hnjUrQ2IYAz1mF-15">
          <mxGeometry relative="1" as="geometry" />
        </mxCell>
        <mxCell id="mqbAT9hnjUrQ2IYAz1mF-20" value="Введите матрицу matrix[n][n+1]" style="shape=parallelogram;perimeter=parallelogramPerimeter;whiteSpace=wrap;html=1;fixedSize=1;" vertex="1" parent="WIyWlLk6GJQsqaUBKTNV-1">
          <mxGeometry x="320" y="260" width="140" height="60" as="geometry" />
        </mxCell>
        <mxCell id="mqbAT9hnjUrQ2IYAz1mF-25" value="" style="edgeStyle=orthogonalEdgeStyle;rounded=0;orthogonalLoop=1;jettySize=auto;html=1;endArrow=none;endFill=0;" edge="1" parent="WIyWlLk6GJQsqaUBKTNV-1" source="mqbAT9hnjUrQ2IYAz1mF-22" target="mqbAT9hnjUrQ2IYAz1mF-24">
          <mxGeometry relative="1" as="geometry" />
        </mxCell>
        <mxCell id="mqbAT9hnjUrQ2IYAz1mF-22" value="let j = i + 1; j &amp;lt; n; j++" style="shape=hexagon;perimeter=hexagonPerimeter2;whiteSpace=wrap;html=1;fixedSize=1;" vertex="1" parent="WIyWlLk6GJQsqaUBKTNV-1">
          <mxGeometry x="320" y="430" width="140" height="30" as="geometry" />
        </mxCell>
        <mxCell id="mqbAT9hnjUrQ2IYAz1mF-24" value="const divider = matrix[j][i] / matrix[i][i];" style="rounded=0;whiteSpace=wrap;html=1;" vertex="1" parent="WIyWlLk6GJQsqaUBKTNV-1">
          <mxGeometry x="330" y="500" width="120" height="60" as="geometry" />
        </mxCell>
        <mxCell id="mqbAT9hnjUrQ2IYAz1mF-28" value="" style="edgeStyle=orthogonalEdgeStyle;rounded=0;orthogonalLoop=1;jettySize=auto;html=1;endArrow=none;endFill=0;" edge="1" parent="WIyWlLk6GJQsqaUBKTNV-1" source="mqbAT9hnjUrQ2IYAz1mF-27" target="mqbAT9hnjUrQ2IYAz1mF-24">
          <mxGeometry relative="1" as="geometry" />
        </mxCell>
        <mxCell id="mqbAT9hnjUrQ2IYAz1mF-30" value="" style="edgeStyle=orthogonalEdgeStyle;rounded=0;orthogonalLoop=1;jettySize=auto;html=1;endArrow=none;endFill=0;" edge="1" parent="WIyWlLk6GJQsqaUBKTNV-1" source="mqbAT9hnjUrQ2IYAz1mF-27" target="mqbAT9hnjUrQ2IYAz1mF-29">
          <mxGeometry relative="1" as="geometry" />
        </mxCell>
        <mxCell id="mqbAT9hnjUrQ2IYAz1mF-27" value="let k = i; k &amp;lt; n + 1; k++" style="shape=hexagon;perimeter=hexagonPerimeter2;whiteSpace=wrap;html=1;fixedSize=1;" vertex="1" parent="WIyWlLk6GJQsqaUBKTNV-1">
          <mxGeometry x="320" y="590" width="140" height="30" as="geometry" />
        </mxCell>
        <mxCell id="mqbAT9hnjUrQ2IYAz1mF-32" style="edgeStyle=orthogonalEdgeStyle;rounded=0;orthogonalLoop=1;jettySize=auto;html=1;entryX=0;entryY=0.5;entryDx=0;entryDy=0;exitX=0.5;exitY=1;exitDx=0;exitDy=0;" edge="1" parent="WIyWlLk6GJQsqaUBKTNV-1" source="mqbAT9hnjUrQ2IYAz1mF-29" target="mqbAT9hnjUrQ2IYAz1mF-27">
          <mxGeometry relative="1" as="geometry">
            <mxPoint x="330" y="680" as="sourcePoint" />
            <mxPoint x="280.0000000000002" y="640" as="targetPoint" />
            <Array as="points">
              <mxPoint x="390" y="740" />
              <mxPoint x="300" y="740" />
              <mxPoint x="300" y="605" />
            </Array>
          </mxGeometry>
        </mxCell>
        <mxCell id="mqbAT9hnjUrQ2IYAz1mF-29" value="matrix[j][k] -= divider * matrix[i][k];" style="rounded=0;whiteSpace=wrap;html=1;" vertex="1" parent="WIyWlLk6GJQsqaUBKTNV-1">
          <mxGeometry x="330" y="650" width="120" height="60" as="geometry" />
        </mxCell>
        <mxCell id="mqbAT9hnjUrQ2IYAz1mF-33" value="" style="endArrow=classic;html=1;rounded=0;exitX=1;exitY=0.5;exitDx=0;exitDy=0;entryX=0;entryY=0.5;entryDx=0;entryDy=0;" edge="1" parent="WIyWlLk6GJQsqaUBKTNV-1" source="mqbAT9hnjUrQ2IYAz1mF-27" target="mqbAT9hnjUrQ2IYAz1mF-22">
          <mxGeometry width="50" height="50" relative="1" as="geometry">
            <mxPoint x="330" y="500" as="sourcePoint" />
            <mxPoint x="280" y="440" as="targetPoint" />
            <Array as="points">
              <mxPoint x="480" y="605" />
              <mxPoint x="480" y="760" />
              <mxPoint x="430" y="760" />
              <mxPoint x="280" y="760" />
              <mxPoint x="280" y="445" />
            </Array>
          </mxGeometry>
        </mxCell>
        <mxCell id="mqbAT9hnjUrQ2IYAz1mF-34" value="" style="endArrow=classic;html=1;rounded=0;exitX=1;exitY=0.5;exitDx=0;exitDy=0;entryX=0;entryY=0.5;entryDx=0;entryDy=0;" edge="1" parent="WIyWlLk6GJQsqaUBKTNV-1" source="mqbAT9hnjUrQ2IYAz1mF-22" target="mqbAT9hnjUrQ2IYAz1mF-15">
          <mxGeometry width="50" height="50" relative="1" as="geometry">
            <mxPoint x="330" y="500" as="sourcePoint" />
            <mxPoint x="520" y="445" as="targetPoint" />
            <Array as="points">
              <mxPoint x="510" y="445" />
              <mxPoint x="510" y="780" />
              <mxPoint x="260" y="780" />
              <mxPoint x="260" y="375" />
            </Array>
          </mxGeometry>
        </mxCell>
        <mxCell id="mqbAT9hnjUrQ2IYAz1mF-38" value="Прямой ход" style="text;html=1;strokeColor=none;fillColor=none;align=center;verticalAlign=middle;whiteSpace=wrap;rounded=0;textOpacity=50;" vertex="1" parent="WIyWlLk6GJQsqaUBKTNV-1">
          <mxGeometry x="240" y="790" width="90" height="30" as="geometry" />
        </mxCell>
        <mxCell id="mqbAT9hnjUrQ2IYAz1mF-42" value="let i = 0; i &amp;lt; n; i++" style="shape=hexagon;perimeter=hexagonPerimeter2;whiteSpace=wrap;html=1;fixedSize=1;" vertex="1" parent="WIyWlLk6GJQsqaUBKTNV-1">
          <mxGeometry x="637.5" y="390" width="120" height="30" as="geometry" />
        </mxCell>
        <mxCell id="mqbAT9hnjUrQ2IYAz1mF-45" value="matrix[i][n] /= matrix[i][i];" style="rounded=0;whiteSpace=wrap;html=1;" vertex="1" parent="WIyWlLk6GJQsqaUBKTNV-1">
          <mxGeometry x="622.5" y="460" width="150" height="50" as="geometry" />
        </mxCell>
        <mxCell id="mqbAT9hnjUrQ2IYAz1mF-46" value="" style="endArrow=none;html=1;rounded=0;entryX=0.5;entryY=1;entryDx=0;entryDy=0;exitX=0.5;exitY=0;exitDx=0;exitDy=0;" edge="1" parent="WIyWlLk6GJQsqaUBKTNV-1" source="mqbAT9hnjUrQ2IYAz1mF-45" target="mqbAT9hnjUrQ2IYAz1mF-42">
          <mxGeometry width="50" height="50" relative="1" as="geometry">
            <mxPoint x="347.5" y="390" as="sourcePoint" />
            <mxPoint x="397.5" y="340" as="targetPoint" />
          </mxGeometry>
        </mxCell>
        <mxCell id="mqbAT9hnjUrQ2IYAz1mF-47" value="let j = i + 1; j &amp;lt; n; j++" style="shape=hexagon;perimeter=hexagonPerimeter2;whiteSpace=wrap;html=1;fixedSize=1;" vertex="1" parent="WIyWlLk6GJQsqaUBKTNV-1">
          <mxGeometry x="627.5" y="555" width="140" height="30" as="geometry" />
        </mxCell>
        <mxCell id="mqbAT9hnjUrQ2IYAz1mF-48" value="" style="endArrow=none;html=1;rounded=0;entryX=0.5;entryY=1;entryDx=0;entryDy=0;exitX=0.5;exitY=0;exitDx=0;exitDy=0;" edge="1" parent="WIyWlLk6GJQsqaUBKTNV-1" source="mqbAT9hnjUrQ2IYAz1mF-47" target="mqbAT9hnjUrQ2IYAz1mF-45">
          <mxGeometry width="50" height="50" relative="1" as="geometry">
            <mxPoint x="347.5" y="390" as="sourcePoint" />
            <mxPoint x="397.5" y="340" as="targetPoint" />
          </mxGeometry>
        </mxCell>
        <mxCell id="mqbAT9hnjUrQ2IYAz1mF-49" value="matrix[j][n] -= matrix[j][i] * matrix[i][n];" style="rounded=0;whiteSpace=wrap;html=1;" vertex="1" parent="WIyWlLk6GJQsqaUBKTNV-1">
          <mxGeometry x="590" y="620" width="215" height="50" as="geometry" />
        </mxCell>
        <mxCell id="mqbAT9hnjUrQ2IYAz1mF-50" value="" style="endArrow=none;html=1;rounded=0;entryX=0.5;entryY=1;entryDx=0;entryDy=0;exitX=0.5;exitY=0;exitDx=0;exitDy=0;" edge="1" parent="WIyWlLk6GJQsqaUBKTNV-1" source="mqbAT9hnjUrQ2IYAz1mF-49" target="mqbAT9hnjUrQ2IYAz1mF-47">
          <mxGeometry width="50" height="50" relative="1" as="geometry">
            <mxPoint x="347.5" y="390" as="sourcePoint" />
            <mxPoint x="397.5" y="340" as="targetPoint" />
          </mxGeometry>
        </mxCell>
        <mxCell id="mqbAT9hnjUrQ2IYAz1mF-51" value="" style="endArrow=none;html=1;rounded=0;entryX=1;entryY=0.5;entryDx=0;entryDy=0;exitX=0.5;exitY=0;exitDx=0;exitDy=0;" edge="1" parent="WIyWlLk6GJQsqaUBKTNV-1" source="mqbAT9hnjUrQ2IYAz1mF-42" target="mqbAT9hnjUrQ2IYAz1mF-15">
          <mxGeometry width="50" height="50" relative="1" as="geometry">
            <mxPoint x="390" y="380" as="sourcePoint" />
            <mxPoint x="440" y="330" as="targetPoint" />
            <Array as="points">
              <mxPoint x="698" y="375" />
            </Array>
          </mxGeometry>
        </mxCell>
        <mxCell id="mqbAT9hnjUrQ2IYAz1mF-53" value="" style="endArrow=classic;html=1;rounded=0;exitX=0.5;exitY=1;exitDx=0;exitDy=0;entryX=0;entryY=0.5;entryDx=0;entryDy=0;" edge="1" parent="WIyWlLk6GJQsqaUBKTNV-1" source="mqbAT9hnjUrQ2IYAz1mF-49" target="mqbAT9hnjUrQ2IYAz1mF-47">
          <mxGeometry width="50" height="50" relative="1" as="geometry">
            <mxPoint x="550" y="590" as="sourcePoint" />
            <mxPoint x="600" y="540" as="targetPoint" />
            <Array as="points">
              <mxPoint x="698" y="690" />
              <mxPoint x="580" y="690" />
              <mxPoint x="580" y="570" />
            </Array>
          </mxGeometry>
        </mxCell>
        <mxCell id="mqbAT9hnjUrQ2IYAz1mF-54" value="" style="endArrow=classic;html=1;rounded=0;exitX=1;exitY=0.5;exitDx=0;exitDy=0;entryX=0;entryY=0.5;entryDx=0;entryDy=0;" edge="1" parent="WIyWlLk6GJQsqaUBKTNV-1" source="mqbAT9hnjUrQ2IYAz1mF-47" target="mqbAT9hnjUrQ2IYAz1mF-42">
          <mxGeometry width="50" height="50" relative="1" as="geometry">
            <mxPoint x="570" y="640" as="sourcePoint" />
            <mxPoint x="620" y="590" as="targetPoint" />
            <Array as="points">
              <mxPoint x="810" y="570" />
              <mxPoint x="810" y="700" />
              <mxPoint x="570" y="700" />
              <mxPoint x="570" y="405" />
            </Array>
          </mxGeometry>
        </mxCell>
        <mxCell id="mqbAT9hnjUrQ2IYAz1mF-56" value="" style="endArrow=none;html=1;rounded=0;exitX=1;exitY=0.5;exitDx=0;exitDy=0;entryX=0.5;entryY=0;entryDx=0;entryDy=0;" edge="1" parent="WIyWlLk6GJQsqaUBKTNV-1" source="mqbAT9hnjUrQ2IYAz1mF-42" target="mqbAT9hnjUrQ2IYAz1mF-60">
          <mxGeometry width="50" height="50" relative="1" as="geometry">
            <mxPoint x="570" y="640" as="sourcePoint" />
            <mxPoint x="690" y="740" as="targetPoint" />
            <Array as="points">
              <mxPoint x="820" y="405" />
              <mxPoint x="820" y="720" />
              <mxPoint x="700" y="720" />
            </Array>
          </mxGeometry>
        </mxCell>
        <mxCell id="mqbAT9hnjUrQ2IYAz1mF-60" value="Вывод корней решения" style="shape=parallelogram;perimeter=parallelogramPerimeter;whiteSpace=wrap;html=1;fixedSize=1;" vertex="1" parent="WIyWlLk6GJQsqaUBKTNV-1">
          <mxGeometry x="637.5" y="740" width="120" height="50" as="geometry" />
        </mxCell>
        <mxCell id="mqbAT9hnjUrQ2IYAz1mF-61" value="Конец" style="ellipse;whiteSpace=wrap;html=1;" vertex="1" parent="WIyWlLk6GJQsqaUBKTNV-1">
          <mxGeometry x="637.5" y="820" width="120" height="50" as="geometry" />
        </mxCell>
        <mxCell id="mqbAT9hnjUrQ2IYAz1mF-62" value="" style="endArrow=none;html=1;rounded=0;exitX=0.5;exitY=1;exitDx=0;exitDy=0;entryX=0.5;entryY=0;entryDx=0;entryDy=0;" edge="1" parent="WIyWlLk6GJQsqaUBKTNV-1" source="mqbAT9hnjUrQ2IYAz1mF-60" target="mqbAT9hnjUrQ2IYAz1mF-61">
          <mxGeometry width="50" height="50" relative="1" as="geometry">
            <mxPoint x="780" y="710" as="sourcePoint" />
            <mxPoint x="830" y="660" as="targetPoint" />
          </mxGeometry>
        </mxCell>
        <mxCell id="mqbAT9hnjUrQ2IYAz1mF-65" value="" style="rounded=0;whiteSpace=wrap;html=1;fillColor=none;perimeterSpacing=1;dashed=1;opacity=20;" vertex="1" parent="WIyWlLk6GJQsqaUBKTNV-1">
          <mxGeometry x="547.5" y="350" width="300" height="380" as="geometry" />
        </mxCell>
        <mxCell id="mqbAT9hnjUrQ2IYAz1mF-66" value="Обратный ход" style="text;html=1;strokeColor=none;fillColor=none;align=center;verticalAlign=middle;whiteSpace=wrap;rounded=0;textOpacity=50;" vertex="1" parent="WIyWlLk6GJQsqaUBKTNV-1">
          <mxGeometry x="547.5" y="700" width="110" height="30" as="geometry" />
        </mxCell>
      </root>
    </mxGraphModel>
  </diagram>
</mxfile>
